<?xml version="1.0" encoding="UTF-8" standalone="no"?> <svg width="512" height="512" viewBox="0 0 512 512" fill="none" xmlns="http://www.w3.org/2000/svg">
    <path fill-rule="evenodd" clip-rule="evenodd" d="M128 24C70.5624 24 24 70.5624 24 128V384C24 441.438 70.5624 488 128 488H384C441.438 488 488 441.438 488 384V128C488 70.5624 441.438 24 384 24H128ZM40 128C40 79.3989 79.3989 40 128 40H384C432.601 40 472 79.3989 472 128V384C472 432.601 432.601 472 384 472H128C79.3989 472 40 432.601 40 384V128ZM360 100C344.536 100 332 112.536 332 128V313.408L189.184 115.663C168.736 87.3493 124 101.815 124 136.741V384C124 399.464 136.536 412 152 412C167.464 412 180 399.464 180 384V198.592L322.816 396.337C343.264 424.651 388 410.185 388 375.259V128C388 112.536 375.464 100 360 100ZM348 128C348 121.373 353.373 116 360 116C366.627 116 372 121.373 372 128V375.259C372 394.663 347.147 402.699 335.786 386.969L178.485 169.168C176.454 166.355 172.84 165.172 169.539 166.24C166.237 167.307 164 170.382 164 173.852V384C164 390.627 158.627 396 152 396C145.373 396 140 390.627 140 384V136.741C140 117.337 164.853 109.301 176.214 125.031L333.515 342.832C335.546 345.645 339.16 346.828 342.461 345.76C345.763 344.693 348 341.618 348 338.148V128Z" fill="url(#paint0_linear)"/>
    <defs>
        <linearGradient id="paint0_linear" x1="64" y1="64" x2="448" y2="448" gradientUnits="userSpaceOnUse">
            <stop stop-color="#FF003D"/>
            <stop offset="1" stop-color="#3D00EB"/>
        </linearGradient>
    </defs>
</svg>
